# xmcd
#
# Track frame offsets:
#	182
#	15115
#	26502
#	44665
#	59730
#	74967
#	96795
#	108377
#	135687
#	150032
#	166667
#	186270
#
# Disc length: 2673 seconds
#
# Revision: 3
# Processed by: cddbd v1.5.2PL0 Copyright (c) Steve Scherf et al.
# Submitted via: EasyCDDAExtractor 11.0.3.1
#
DISCID=9b0a6f0c
DTITLE=The Independents - " Leaving Me " . Their Golden  Classics
DYEAR=1991
DGENRE=R&B
TTITLE0=Leaving Me
TTITLE1=I Found Love On  A Rainy Day
TTITLE2=The First Time We Met
TTITLE3=I Just Want To Be There
TTITLE4=It's All Over
TTITLE5=Let This Be A Lesson To You
TTITLE6=No Wind , No Rain
TTITLE7=Just As Long As You Need Me (Pt.1&2 )
TTITLE8=Sara Lee
TTITLE9=Baby I've Been Missing You
TTITLE10=Couldn't Hear Nobody Say ( I Love You Like I Do )
TTITLE11=Arise And Shine (Let's Get It On)
EXTD=
EXTT0=
EXTT1=
EXTT2=
EXTT3=
EXTT4=
EXTT5=
EXTT6=
EXTT7=
EXTT8=
EXTT9=
EXTT10=\n
EXTT11=
PLAYORDER=
